<mxfile host="app.diagrams.net" agent="Mozilla/5.0 (X11; Linux x86_64) AppleWebKit/537.36 (KHTML, like Gecko) Chrome/133.0.0.0 Safari/537.36" version="26.0.16">
  <diagram name="Page-1" id="Q-Erw0ky0jqGeDEDkZ_F">
    <mxGraphModel dx="6793" dy="1023" grid="1" gridSize="10" guides="1" tooltips="1" connect="1" arrows="1" fold="1" page="1" pageScale="1" pageWidth="850" pageHeight="1100" math="0" shadow="0">
      <root>
        <mxCell id="0" />
        <mxCell id="1" parent="0" />
        <mxCell id="-9zvNtevMG7Op-GNZV5d-1" value="&lt;font style=&quot;font-size: 24px;&quot;&gt;User Interacts with Frontend&lt;/font&gt;" style="rounded=1;whiteSpace=wrap;html=1;" vertex="1" parent="1">
          <mxGeometry x="-3032.5" y="1425" width="205" height="110" as="geometry" />
        </mxCell>
        <mxCell id="-9zvNtevMG7Op-GNZV5d-2" value="&lt;font style=&quot;font-size: 24px;&quot;&gt;Frontend Communicates with Backend&lt;/font&gt;" style="rounded=1;whiteSpace=wrap;html=1;" vertex="1" parent="1">
          <mxGeometry x="-2602.5" y="1425" width="205" height="110" as="geometry" />
        </mxCell>
        <mxCell id="-9zvNtevMG7Op-GNZV5d-3" value="" style="endArrow=block;html=1;rounded=0;exitX=1;exitY=0.5;exitDx=0;exitDy=0;entryX=0;entryY=0.5;entryDx=0;entryDy=0;endFill=0;strokeWidth=3;" edge="1" parent="1" source="-9zvNtevMG7Op-GNZV5d-1" target="-9zvNtevMG7Op-GNZV5d-2">
          <mxGeometry width="50" height="50" relative="1" as="geometry">
            <mxPoint x="-2772.5" y="1478" as="sourcePoint" />
            <mxPoint x="-2627.5" y="1478" as="targetPoint" />
          </mxGeometry>
        </mxCell>
        <mxCell id="-9zvNtevMG7Op-GNZV5d-4" value="&lt;font style=&quot;font-size: 24px;&quot;&gt;Backend Enforces Authorization&lt;/font&gt;" style="rounded=1;whiteSpace=wrap;html=1;" vertex="1" parent="1">
          <mxGeometry x="-1542.5" y="1425" width="205" height="110" as="geometry" />
        </mxCell>
        <mxCell id="-9zvNtevMG7Op-GNZV5d-5" value="&lt;font style=&quot;font-size: 24px;&quot;&gt;User Data Stored in Database&lt;/font&gt;" style="rounded=1;whiteSpace=wrap;html=1;" vertex="1" parent="1">
          <mxGeometry x="-1062.5" y="1425" width="205" height="110" as="geometry" />
        </mxCell>
        <mxCell id="-9zvNtevMG7Op-GNZV5d-6" value="" style="endArrow=block;html=1;rounded=0;exitX=1;exitY=0.5;exitDx=0;exitDy=0;entryX=0;entryY=0.5;entryDx=0;entryDy=0;endFill=0;strokeWidth=3;" edge="1" parent="1" source="-9zvNtevMG7Op-GNZV5d-4" target="-9zvNtevMG7Op-GNZV5d-5">
          <mxGeometry width="50" height="50" relative="1" as="geometry">
            <mxPoint x="-1282.5" y="1478" as="sourcePoint" />
            <mxPoint x="-1137.5" y="1478" as="targetPoint" />
          </mxGeometry>
        </mxCell>
        <mxCell id="-9zvNtevMG7Op-GNZV5d-7" value="&lt;font style=&quot;font-size: 24px;&quot;&gt;Backend Servers USer Requests&lt;/font&gt;" style="rounded=1;whiteSpace=wrap;html=1;" vertex="1" parent="1">
          <mxGeometry x="-632.5" y="1425" width="205" height="110" as="geometry" />
        </mxCell>
        <mxCell id="-9zvNtevMG7Op-GNZV5d-8" value="" style="endArrow=block;html=1;rounded=0;exitX=1;exitY=0.5;exitDx=0;exitDy=0;entryX=0;entryY=0.5;entryDx=0;entryDy=0;endFill=0;strokeWidth=3;" edge="1" parent="1" source="-9zvNtevMG7Op-GNZV5d-5" target="-9zvNtevMG7Op-GNZV5d-7">
          <mxGeometry width="50" height="50" relative="1" as="geometry">
            <mxPoint x="-812.5" y="1479" as="sourcePoint" />
            <mxPoint x="-537.5" y="1479" as="targetPoint" />
          </mxGeometry>
        </mxCell>
        <mxCell id="-9zvNtevMG7Op-GNZV5d-9" value="&lt;font style=&quot;font-size: 24px;&quot;&gt;Authentication via Keycloak&lt;/font&gt;" style="rhombus;whiteSpace=wrap;html=1;" vertex="1" parent="1">
          <mxGeometry x="-2242.5" y="1340" width="240" height="280" as="geometry" />
        </mxCell>
        <mxCell id="-9zvNtevMG7Op-GNZV5d-10" value="&lt;span style=&quot;font-size: 24px;&quot;&gt;Polytech LDAP&lt;/span&gt;" style="rounded=1;whiteSpace=wrap;html=1;" vertex="1" parent="1">
          <mxGeometry x="-1902.5" y="1425" width="205" height="110" as="geometry" />
        </mxCell>
        <mxCell id="-9zvNtevMG7Op-GNZV5d-11" value="&lt;font style=&quot;font-size: 24px;&quot;&gt;Validates Credentials&lt;/font&gt;" style="rounded=1;whiteSpace=wrap;html=1;" vertex="1" parent="1">
          <mxGeometry x="-1912.5" y="1210" width="205" height="110" as="geometry" />
        </mxCell>
        <mxCell id="-9zvNtevMG7Op-GNZV5d-12" value="&lt;font style=&quot;font-size: 24px;&quot;&gt;Google OAuth&lt;/font&gt;" style="rounded=1;whiteSpace=wrap;html=1;" vertex="1" parent="1">
          <mxGeometry x="-1902.5" y="1640" width="205" height="110" as="geometry" />
        </mxCell>
        <mxCell id="-9zvNtevMG7Op-GNZV5d-13" value="" style="endArrow=block;html=1;rounded=0;exitX=1;exitY=0.5;exitDx=0;exitDy=0;entryX=0;entryY=0.5;entryDx=0;entryDy=0;endFill=0;strokeWidth=3;" edge="1" parent="1" source="-9zvNtevMG7Op-GNZV5d-2" target="-9zvNtevMG7Op-GNZV5d-9">
          <mxGeometry width="50" height="50" relative="1" as="geometry">
            <mxPoint x="-2367.5" y="1570" as="sourcePoint" />
            <mxPoint x="-2142.5" y="1570" as="targetPoint" />
          </mxGeometry>
        </mxCell>
        <mxCell id="-9zvNtevMG7Op-GNZV5d-14" value="" style="endArrow=block;html=1;rounded=0;exitX=0.5;exitY=0;exitDx=0;exitDy=0;entryX=0;entryY=0.5;entryDx=0;entryDy=0;endFill=0;strokeWidth=3;edgeStyle=orthogonalEdgeStyle;" edge="1" parent="1" source="-9zvNtevMG7Op-GNZV5d-9" target="-9zvNtevMG7Op-GNZV5d-11">
          <mxGeometry width="50" height="50" relative="1" as="geometry">
            <mxPoint x="-2387.5" y="1490" as="sourcePoint" />
            <mxPoint x="-2232.5" y="1490" as="targetPoint" />
          </mxGeometry>
        </mxCell>
        <mxCell id="-9zvNtevMG7Op-GNZV5d-15" value="" style="endArrow=block;html=1;rounded=0;exitX=1;exitY=0.5;exitDx=0;exitDy=0;entryX=0;entryY=0.5;entryDx=0;entryDy=0;endFill=0;strokeWidth=3;edgeStyle=orthogonalEdgeStyle;" edge="1" parent="1" source="-9zvNtevMG7Op-GNZV5d-9" target="-9zvNtevMG7Op-GNZV5d-10">
          <mxGeometry width="50" height="50" relative="1" as="geometry">
            <mxPoint x="-2112.5" y="1350" as="sourcePoint" />
            <mxPoint x="-1892.5" y="995" as="targetPoint" />
          </mxGeometry>
        </mxCell>
        <mxCell id="-9zvNtevMG7Op-GNZV5d-16" value="" style="endArrow=block;html=1;rounded=0;exitX=0.5;exitY=1;exitDx=0;exitDy=0;entryX=0;entryY=0.5;entryDx=0;entryDy=0;endFill=0;strokeWidth=3;edgeStyle=orthogonalEdgeStyle;" edge="1" parent="1" source="-9zvNtevMG7Op-GNZV5d-9" target="-9zvNtevMG7Op-GNZV5d-12">
          <mxGeometry width="50" height="50" relative="1" as="geometry">
            <mxPoint x="-1992.5" y="1490" as="sourcePoint" />
            <mxPoint x="-1892.5" y="1490" as="targetPoint" />
          </mxGeometry>
        </mxCell>
        <mxCell id="-9zvNtevMG7Op-GNZV5d-17" value="" style="endArrow=block;html=1;rounded=0;exitX=1;exitY=0.5;exitDx=0;exitDy=0;entryX=0.5;entryY=1;entryDx=0;entryDy=0;endFill=0;strokeWidth=3;edgeStyle=orthogonalEdgeStyle;" edge="1" parent="1" source="-9zvNtevMG7Op-GNZV5d-12" target="-9zvNtevMG7Op-GNZV5d-4">
          <mxGeometry width="50" height="50" relative="1" as="geometry">
            <mxPoint x="-2112.5" y="1630" as="sourcePoint" />
            <mxPoint x="-1902.5" y="1875" as="targetPoint" />
          </mxGeometry>
        </mxCell>
        <mxCell id="-9zvNtevMG7Op-GNZV5d-18" value="" style="endArrow=block;html=1;rounded=0;exitX=1;exitY=0.5;exitDx=0;exitDy=0;entryX=0;entryY=0.5;entryDx=0;entryDy=0;endFill=0;strokeWidth=3;edgeStyle=orthogonalEdgeStyle;" edge="1" parent="1" source="-9zvNtevMG7Op-GNZV5d-10" target="-9zvNtevMG7Op-GNZV5d-4">
          <mxGeometry width="50" height="50" relative="1" as="geometry">
            <mxPoint x="-1697.5" y="1875" as="sourcePoint" />
            <mxPoint x="-1429.5" y="1545" as="targetPoint" />
          </mxGeometry>
        </mxCell>
        <mxCell id="-9zvNtevMG7Op-GNZV5d-19" value="" style="endArrow=block;html=1;rounded=0;exitX=1;exitY=0.5;exitDx=0;exitDy=0;entryX=0.5;entryY=0;entryDx=0;entryDy=0;endFill=0;strokeWidth=3;edgeStyle=orthogonalEdgeStyle;" edge="1" parent="1" source="-9zvNtevMG7Op-GNZV5d-11" target="-9zvNtevMG7Op-GNZV5d-4">
          <mxGeometry width="50" height="50" relative="1" as="geometry">
            <mxPoint x="-1687.5" y="1490" as="sourcePoint" />
            <mxPoint x="-1532.5" y="1490" as="targetPoint" />
          </mxGeometry>
        </mxCell>
      </root>
    </mxGraphModel>
  </diagram>
</mxfile>
